<?xml version="1.0" encoding="UTF-8"?>
<svg width="149px" height="38px" viewBox="0 0 149 38" version="1.1" xmlns="http://www.w3.org/2000/svg" xmlns:xlink="http://www.w3.org/1999/xlink">
    <!-- Generator: sketchtool 59.1 (101010) - https://sketch.com -->
    <title>6E7FC580-9EB7-42DA-B721-03BC062AC737</title>
    <desc>Created with sketchtool.</desc>
    <g id="Desktop" stroke="none" stroke-width="1" fill="none" fill-rule="evenodd">
        <g id="Home-01" transform="translate(-39.000000, -21.000000)" fill-rule="nonzero">
            <g id="Logo03" transform="translate(39.000000, 21.000000)">
                <g id="Group" transform="translate(51.745104, 9.874016)" fill="#000000">
                    <path d="M5.54475553,0.519133858 C6.97220667,0.519133858 8.17364472,1.0023622 9.14758274,1.9688189 C10.1230077,2.93527559 10.6107202,4.12314961 10.6107202,5.53094488 C10.6107202,6.93874016 10.1230077,8.12511811 9.14758274,9.09307087 C8.17215779,10.0595276 6.97071974,10.5427559 5.54475553,10.5427559 L2.93817027,10.5427559 L2.93817027,15.4483465 L0.0133823545,15.4483465 L0.0133823545,0.520629921 L5.54475553,0.520629921 L5.54475553,0.519133858 Z M5.54475553,7.79149606 C6.16629155,7.79149606 6.68225566,7.57456693 7.09264786,7.14070866 C7.50304007,6.70685039 7.70674924,6.16976378 7.70674924,5.53094488 C7.70674924,4.87716535 7.50155314,4.33708661 7.09264786,3.91070866 C6.68225566,3.48433071 6.16629155,3.2703937 5.54475553,3.2703937 L2.93817027,3.2703937 L2.93817027,7.79149606 L5.54475553,7.79149606 Z" id="Shape"></path>
                    <path d="M13.5355081,3.50527559 C13.0834819,3.50527559 12.6909328,3.33771654 12.3593478,3.00409449 C12.0277628,2.67047244 11.8612268,2.27551181 11.8612268,1.82070866 C11.8612268,1.36590551 12.0277628,0.967952756 12.3593478,0.626850394 C12.6909328,0.285748031 13.0834819,0.11519685 13.5355081,0.11519685 C14.0024035,0.11519685 14.4009003,0.285748031 14.7324853,0.626850394 C15.0640703,0.967952756 15.2306063,1.36590551 15.2306063,1.82070866 C15.2306063,2.27551181 15.0640703,2.67047244 14.7324853,3.00409449 C14.4009003,3.33771654 14.0024035,3.50527559 13.5355081,3.50527559 Z M12.1794295,15.4468504 L12.1794295,4.78440945 L14.9138906,4.78440945 L14.9138906,15.4468504 L12.1794295,15.4468504 Z" id="Shape"></path>
                    <path d="M25.3209016,4.78440945 L27.9914247,4.78440945 L27.9914247,14.9351969 C27.9914247,16.5838583 27.4516698,17.8420472 26.369186,18.7097638 C25.2881891,19.5774803 23.984153,20.0113386 22.4585646,20.0113386 C21.3136299,20.0113386 20.3069794,19.7914173 19.4386133,19.3500787 C18.5702472,18.9087402 17.9026164,18.2624409 17.4357209,17.409685 L19.7672245,16.0662205 C20.3040056,17.0611024 21.2303619,17.5592913 22.5433195,17.5592913 C23.4057379,17.5592913 24.0837772,17.3318898 24.5774374,16.8770866 C25.0725845,16.4222835 25.3194146,15.7744882 25.3194146,14.9366929 L25.3194146,13.7847244 C24.5134995,14.8648819 23.383434,15.4049606 21.9277312,15.4049606 C20.4303945,15.4049606 19.175427,14.8753543 18.1658027,13.8161417 C17.1546915,12.7569291 16.6506228,11.4673228 16.6506228,9.94582677 C16.6506228,8.43929134 17.1591523,7.15267717 18.1762112,6.08598425 C19.1932701,5.01929134 20.4437768,4.48669291 21.9277312,4.48669291 C23.383434,4.48669291 24.5134995,5.02677165 25.3194146,6.10692913 L25.3194146,4.78440945 L25.3209016,4.78440945 Z M20.2237114,12.0462992 C20.7813095,12.5938583 21.4920613,12.8676378 22.3544797,12.8676378 C23.2168981,12.8676378 23.9261628,12.5938583 24.4852479,12.0462992 C25.042846,11.4987402 25.3223885,10.7985827 25.3223885,9.94582677 C25.3223885,9.10653543 25.042846,8.41385827 24.4852479,7.86629921 C23.9261628,7.31874016 23.2168981,7.04496063 22.3544797,7.04496063 C21.4920613,7.04496063 20.7827965,7.31874016 20.2237114,7.86629921 C19.6646264,8.41385827 19.3865708,9.10653543 19.3865708,9.94582677 C19.3865708,10.7985827 19.6646264,11.4987402 20.2237114,12.0462992 Z" id="Shape"></path>
                    <path d="M38.3776187,4.78440945 L41.0481419,4.78440945 L41.0481419,14.9351969 C41.0481419,16.5838583 40.5083869,17.8420472 39.4259032,18.7097638 C38.3449063,19.5774803 37.0408702,20.0113386 35.5152818,20.0113386 C34.370347,20.0113386 33.3636966,19.7914173 32.4953305,19.3500787 C31.6269644,18.9087402 30.9593336,18.2624409 30.4924381,17.409685 L32.8239416,16.0662205 C33.3607227,17.0611024 34.287079,17.5592913 35.6000367,17.5592913 C36.4609682,17.5592913 37.1404944,17.3318898 37.6341546,16.8770866 C38.1293017,16.4222835 38.3761318,15.7744882 38.3761318,14.9366929 L38.3761318,13.7847244 C37.5702167,14.8648819 36.4401512,15.4049606 34.9844484,15.4049606 C33.4871116,15.4049606 32.2321442,14.8753543 31.2225199,13.8161417 C30.2114087,12.7569291 29.70734,11.4673228 29.70734,9.94582677 C29.70734,8.43929134 30.2158694,7.15267717 31.2329284,6.08598425 C32.2499873,5.01929134 33.500494,4.48669291 34.9844484,4.48669291 C36.4401512,4.48669291 37.5702167,5.02677165 38.3761318,6.10692913 L38.3761318,4.78440945 L38.3776187,4.78440945 Z M33.2804286,12.0462992 C33.8380267,12.5938583 34.5487784,12.8676378 35.4111968,12.8676378 C36.2736152,12.8676378 36.98288,12.5938583 37.541965,12.0462992 C38.0995631,11.4987402 38.3791057,10.7985827 38.3791057,9.94582677 C38.3791057,9.10653543 38.0995631,8.41385827 37.541965,7.86629921 C36.9843669,7.31874016 36.2736152,7.04496063 35.4111968,7.04496063 C34.5487784,7.04496063 33.8395136,7.31874016 33.2804286,7.86629921 C32.7228305,8.41385827 32.443288,9.10653543 32.443288,9.94582677 C32.443288,10.7985827 32.7213436,11.4987402 33.2804286,12.0462992 Z" id="Shape"></path>
                    <path d="M50.2254632,4.78440945 L53.1502511,4.78440945 L49.2857245,15.4648031 C48.7340742,16.9877953 48.0039924,18.0933858 47.0939923,18.7845669 C46.1839922,19.474252 45.0509528,19.783937 43.6963612,19.713622 L43.6963612,17.1538583 C44.4309037,17.1673228 45.0137796,17.0117323 45.4449888,16.6840945 C45.876198,16.3564567 46.2181915,15.8313386 46.4724562,15.105748 L42.1276518,4.78440945 L45.1163777,4.78440945 L47.8805773,11.9520472 L50.2254632,4.78440945 Z" id="Path"></path>
                    <path d="M64.0969787,15.4468504 L61.0978444,10.2644882 L58.8823212,10.2644882 L58.8823212,15.4468504 L55.9575333,15.4468504 L55.9575333,0.519133858 L61.8918641,0.519133858 C63.2628119,0.519133858 64.4285637,1.0023622 65.3891194,1.9688189 C66.349675,2.93527559 66.8299529,4.10070866 66.8299529,5.46661417 C66.8299529,6.3911811 66.5682535,7.24692913 66.0463417,8.03685039 C65.5244298,8.82527559 64.8315213,9.4192126 63.9691029,9.81716535 L67.2537274,15.4468504 L64.0969787,15.4468504 Z M58.8823212,3.2703937 L58.8823212,7.68527559 L61.8918641,7.68527559 C62.4435145,7.68527559 62.9163577,7.46834646 63.3118806,7.03448819 C63.7074035,6.60062992 63.905165,6.07850394 63.905165,5.46661417 C63.905165,4.85622047 63.7074035,4.33559055 63.3118806,3.9092126 C62.9163577,3.48283465 62.4435145,3.26889764 61.8918641,3.26889764 L58.8823212,3.26889764 L58.8823212,3.2703937 Z" id="Shape"></path>
                    <path d="M69.9896754,3.50527559 C69.5376493,3.50527559 69.1451002,3.33771654 68.8135152,3.00409449 C68.4819302,2.67047244 68.3153942,2.27551181 68.3153942,1.82070866 C68.3153942,1.36590551 68.4819302,0.967952756 68.8135152,0.626850394 C69.1451002,0.285748031 69.5376493,0.11519685 69.9896754,0.11519685 C70.4565709,0.11519685 70.8550677,0.285748031 71.1866527,0.626850394 C71.5182377,0.967952756 71.6847737,1.36590551 71.6847737,1.82070866 C71.6847737,2.27551181 71.5182377,2.67047244 71.1866527,3.00409449 C70.8550677,3.33771654 70.455084,3.50527559 69.9896754,3.50527559 Z M68.6321099,15.4468504 L68.6321099,4.78440945 L71.366571,4.78440945 L71.366571,15.4468504 L68.6321099,15.4468504 Z" id="Shape"></path>
                    <path d="M81.6888271,0.519133858 L84.4232882,0.519133858 L84.4232882,15.4468504 L81.6888271,15.4468504 L81.6888271,14.1886614 C80.882912,15.2269291 79.7394641,15.746063 78.2555097,15.746063 C76.8280586,15.746063 75.6087774,15.2014961 74.5991531,14.1138583 C73.5880419,13.0262205 73.0839732,11.6932283 73.0839732,10.1148819 C73.0839732,8.53653543 73.5895288,7.20354331 74.5991531,6.11590551 C75.6087774,5.02826772 76.8280586,4.48519685 78.2555097,4.48519685 C79.7394641,4.48519685 80.8843989,5.00433071 81.6888271,6.04259843 L81.6888271,0.519133858 Z M76.6555749,12.279685 C77.213173,12.8422047 77.9164901,13.1219685 78.7640392,13.1219685 C79.6115883,13.1219685 80.3119315,12.8407087 80.862095,12.279685 C81.4137454,11.7186614 81.6888271,10.996063 81.6888271,10.1148819 C81.6888271,9.23370079 81.4137454,8.51259843 80.862095,7.95007874 C80.3104446,7.38905512 79.6115883,7.10779528 78.7640392,7.10779528 C77.9164901,7.10779528 77.213173,7.38905512 76.6555749,7.95007874 C76.0979768,8.51259843 75.8184343,9.23370079 75.8184343,10.1148819 C75.8184343,10.9975591 76.0964899,11.7186614 76.6555749,12.279685 Z" id="Shape"></path>
                    <path d="M89.0223573,11.2459055 C89.3896286,12.5818898 90.3858706,13.2506299 92.0110832,13.2506299 C93.0563938,13.2506299 93.8474396,12.896063 94.3842207,12.183937 L96.5893353,13.4630709 C95.5440248,14.9845669 94.0035671,15.7445669 91.9679623,15.7445669 C90.2148738,15.7445669 88.8097266,15.2119685 87.7495467,14.1452756 C86.6893669,13.0785827 86.1600204,11.7351181 86.1600204,10.1148819 C86.1600204,8.50811024 86.6819322,7.16913386 87.7287297,6.09496063 C88.7740403,5.02228346 90.1167366,4.48519685 91.7553315,4.48519685 C93.3091716,4.48519685 94.5923907,5.02527559 95.602015,6.10543307 C96.6116393,7.18559055 97.1171949,8.52307087 97.1171949,10.1148819 C97.1171949,10.4709449 97.0815086,10.8479528 97.011623,11.2459055 L89.0223573,11.2459055 L89.0223573,11.2459055 Z M88.9807234,9.11401575 L94.3857076,9.11401575 C94.2295802,8.3884252 93.9084037,7.84834646 93.4206912,7.49377953 C92.9329787,7.1392126 92.3783545,6.9611811 91.7568184,6.9611811 C91.0222759,6.9611811 90.4141222,7.14968504 89.9338444,7.52669291 C89.4535665,7.90220472 89.1353639,8.43181102 88.9807234,9.11401575 Z" id="Shape"></path>
                </g>
                <ellipse id="Oval" fill="#392270" cx="18.7947734" cy="19.0029921" rx="18.7635479" ry="18.8788189"></ellipse>
                <g id="Group" transform="translate(11.300655, 4.188976)" fill="#00ECE6">
                    <path d="M15.1280083,7.72566929 C12.6745766,6.37173228 9.30073635,6.76370079 7.04357923,7.75259843 C4.95593193,8.66818898 2.60807219,10.1537795 0.0446078482,12.1779528 L0.0446078482,17.076063 C0.226013098,16.9997638 0.398496777,16.8950394 0.556111174,16.7603937 C3.57011478,14.1692126 6.34472294,12.2811811 8.57957614,11.3012598 C9.93714165,10.7058268 12.0456059,10.4395276 13.2767826,11.1187402 C14.3473709,11.709685 14.1496094,13.3852756 13.7555735,14.3666929 C12.9749361,16.3115748 11.3333673,17.7986614 9.71707626,19.1570866 C9.14014809,19.641811 8.56470685,20.1250394 7.98777868,20.6082677 C6.45326871,21.8933858 4.88307245,23.2114173 3.32328469,24.5414173 C2.82813758,24.9633071 1.26983675,26.2559055 0.777663487,26.6792913 L0.777663487,31.5968504 C1.00367658,31.5145669 3.66825205,29.3348031 3.86601351,29.1627559 C6.03692879,27.2822047 8.28070355,25.4001575 10.4501319,23.5824409 C11.028547,23.0977165 11.6054752,22.6129921 12.1824033,22.1282677 C14.0841846,20.5304724 16.2075182,18.5915748 17.3212275,15.816378 C18.4111459,13.1040157 18.1895936,9.41622047 15.1280083,7.72566929 Z" id="Path"></path>
                    <path d="M4.43699397,15.2987402 L4.43699397,33.8110236 L8.28367741,33.8110236 L8.28367741,13.015748 C7.12387336,13.5543307 5.82875883,14.3233071 4.43699397,15.2987402 Z" id="Path"></path>
                    <ellipse id="Oval" cx="3.19986964" cy="4.18448819" rx="3.02292518" ry="3.04149606"></ellipse>
                    <path d="M13.9622565,2.70937008 C13.9622565,4.13511811 12.8128609,5.29007874 11.3973052,5.29007874 C9.9817495,5.29007874 8.83235394,4.13511811 8.83235394,2.70937008 C8.83235394,1.28362205 9.98026257,0.128661417 11.3973052,0.128661417 C12.8143479,0.13015748 13.9622565,1.28362205 13.9622565,2.70937008 Z" id="Path"></path>
                </g>
            </g>
        </g>
    </g>
</svg>