<?xml version="1.0" encoding="UTF-8"?>
<svg width="100px" height="100px" viewBox="0 0 100 100" version="1.1" xmlns="http://www.w3.org/2000/svg" xmlns:xlink="http://www.w3.org/1999/xlink">
    <!-- Generator: sketchtool 54.1 (76490) - https://sketchapp.com -->
    <title>79F2FF4D-8831-4B01-80FF-3BB7BC8FB170</title>
    <desc>Created with sketchtool.</desc>
    <g id="Page-1" stroke="none" stroke-width="1" fill="none" fill-rule="evenodd">
        <g id="Desktop-Home" transform="translate(-43.000000, -762.000000)">
            <g id="Rides-on-demand" transform="translate(43.000000, 762.000000)">
                <path d="M100,50 C100,77.6137131 77.6146835,100 50.0006251,100 C22.3853165,100 0,77.6137131 0,50 C0,22.3862869 22.3853165,0 50.0006251,0 C77.6146835,0 100,22.3862869 100,50" id="Fill-1-Copy" fill="#DCF3FF" opacity="1"></path>
                <path d="M33.7251276,28.0000329 C32.7336459,27.9947948 31.765999,28.6161372 31.3507653,29.522327 L24.2276786,45.2366114 C24.0870643,45.5764064 24.0067653,45.90473 24,46.333363 L24,64.142863 C24.0001561,65.5141429 25.2396643,66.7617515 26.6020408,66.7619087 L27.122449,66.7619087 L27.122449,69.9047635 C27.1225531,71.0017769 28.1141908,71.9998952 29.2040816,72 L34.4081633,72 C35.4980541,71.9998952 36.4896918,71.0017769 36.4897959,69.9047635 L36.4897959,66.7619087 L62.5102041,66.7619087 L62.5102041,69.9047635 C62.5103082,71.0017769 63.5019459,71.9998952 64.5918367,72 L69.7959184,72 C70.8858092,71.9998952 71.8774469,71.0017769 71.877551,69.9047635 L71.877551,66.7619087 L72.3979592,66.7619087 C73.7603357,66.7617515 74.9998439,65.5141429 75,64.142863 L75,46.333363 C74.9932347,45.9318633 74.8988847,45.5643588 74.7723214,45.2366114 L67.6492347,29.522327 C67.2942122,28.7299609 66.3933857,28.005271 65.2748724,28.0000329 L33.7251276,28.0000329 Z M35.4001653,33.2381242 L63.5998347,33.2381242 L68.3485592,43.7143173 L30.6514408,43.7143173 L35.4001653,33.2381242 Z M36.4897959,50.0000164 C38.7891153,50.0000164 40.6530612,51.876196 40.6530612,54.1904895 C40.6530612,56.504783 38.7891153,58.3809626 36.4897959,58.3809626 C34.1904765,58.3809626 32.3265306,56.504783 32.3265306,54.1904895 C32.3265306,51.876196 34.1904765,50.0000164 36.4897959,50.0000164 Z M62.5102041,50.0000164 C64.8095235,50.0000164 66.6734694,51.876196 66.6734694,54.1904895 C66.6734694,56.504783 64.8095235,58.3809626 62.5102041,58.3809626 C60.2108847,58.3809626 58.3469388,56.504783 58.3469388,54.1904895 C58.3469388,51.876196 60.2108847,50.0000164 62.5102041,50.0000164 Z" id="Shape" fill="#5245C2" fill-rule="nonzero"></path>
            </g>
        </g>
    </g>
</svg>