<?xml version="1.0" encoding="UTF-8"?>
<svg width="100px" height="100px" viewBox="0 0 100 100" version="1.1" xmlns="http://www.w3.org/2000/svg" xmlns:xlink="http://www.w3.org/1999/xlink">
    <!-- Generator: sketchtool 54.1 (76490) - https://sketchapp.com -->
    <title>7797C1C7-E956-4DEE-B9B8-61F8BDFDD090</title>
    <desc>Created with sketchtool.</desc>
    <g id="Page-1" stroke="none" stroke-width="1" fill="none" fill-rule="evenodd">
        <g id="Desktop-Home" transform="translate(-963.000000, -762.000000)">
            <g id="Safety-First" transform="translate(963.000000, 762.000000)">
                <path d="M100,50 C100,77.6137131 77.6146835,100 50.0006251,100 C22.3853165,100 0,77.6137131 0,50 C0,22.3862869 22.3853165,0 50.0006251,0 C77.6146835,0 100,22.3862869 100,50" id="Fill-1" fill="#D1D7F4" opacity="0.539109003"></path>
                <path d="M49.5006232,72.2148199 C36.9738036,72.2148199 26.7863374,62.0271141 26.7863374,49.5 C33.0703116,49.5 38.1441035,44.4273352 38.1441035,38.1432132 L38.1441035,30.5716066 C38.1441035,38.9334023 44.9228689,45.7135735 53.2857143,45.7135735 L71.8846326,45.7135735 C72.092769,46.9674066 72.2149089,48.2274715 72.2149089,49.5 C72.2149089,62.0271141 62.0274427,72.2148199 49.5006232,72.2148199 M74.7349794,41.3488383 C71.1991534,30.3746825 61.0615403,23 49.5006232,23 C45.2681011,23 41.039318,24.0257502 37.2654439,25.9787884 C28.4676308,30.5903019 23,39.6002022 23,49.5 C23,64.1085269 34.8874544,76 49.5006232,76 C64.1100529,76 76,64.1085269 76,49.5 C76,46.74057 75.5762493,43.998589 74.7349794,41.3488383" id="Fill-3" fill="#5245C2"></path>
                <path d="M39.0006584,50 C41.2090535,50 43,51.7909465 43,54.0006584 C43,56.2090535 41.2090535,58 39.0006584,58 C36.7909465,58 35,56.2090535 35,54.0006584 C35,51.7909465 36.7909465,50 39.0006584,50" id="Fill-5" fill="#5245C2"></path>
                <path d="M61.0006584,50 C63.2103704,50 65,51.7909465 65,54.0006584 C65,56.2090535 63.2103704,58 61.0006584,58 C58.7909465,58 57,56.2090535 57,54.0006584 C57,51.7909465 58.7909465,50 61.0006584,50 L39,50" id="Fill-7" fill="#5245C2"></path>
            </g>
        </g>
    </g>
</svg>